<svg width="64" height="51" viewBox="0 0 64 51" fill="none" xmlns="http://www.w3.org/2000/svg">
<g filter="url(#filter0_d_20005153_1696)">
<path d="M56.4298 42.5362H7.50261C5.60543 42.5362 4.00781 40.9885 4.00781 39.0414V3.69402C4.00781 1.79684 5.55551 0.199219 7.50261 0.199219H56.4298C58.3269 0.199219 59.9246 1.74691 59.9246 3.69402V39.0414C59.9246 40.9885 58.3769 42.5362 56.4298 42.5362Z" fill="#E3E3E3"/>
<path opacity="0.1" d="M10.9964 42.5396L31.9153 25.7146L32.0651 24.8159L10.4972 9.28906L10.4473 41.7907L10.9964 42.5396Z" fill="#070A11"/>
<path d="M7.50261 42.5363C5.55551 42.5363 4.00781 40.9886 4.00781 39.0415V3.64424C4.00781 1.69714 5.55551 1.34766 7.50261 1.34766C9.44971 1.34766 10.9974 1.74706 10.9974 3.64424V42.5363H7.50261Z" fill="#D54B3D"/>
<path d="M7.50261 1.84691C9.99889 1.84691 10.4981 2.5958 10.4981 3.64424V42.0371H7.50261C5.85506 42.0371 4.50707 40.6891 4.50707 39.0415V3.64424C4.50707 2.54587 5.00633 1.84691 7.50261 1.84691ZM7.50261 1.34766C5.55551 1.34766 4.00781 1.74706 4.00781 3.64424V39.0415C4.00781 40.9886 5.55551 42.5363 7.50261 42.5363H10.9974V3.64424C10.9974 1.69714 9.44971 1.34766 7.50261 1.34766Z" fill="#D72B27"/>
<path d="M56.4284 42.5363H52.9336V3.54439C52.9336 1.59728 54.4813 1.34766 56.4284 1.34766C58.3755 1.34766 59.9232 1.59728 59.9232 3.54439V39.0915C59.9232 40.9886 58.3755 42.5363 56.4284 42.5363Z" fill="#D54B3D"/>
<path d="M56.4284 1.84691C58.6751 1.84691 59.4239 2.29624 59.4239 3.54439V39.0915C59.4239 40.739 58.0759 42.087 56.4284 42.087H53.4329V3.54439C53.4329 2.24632 54.1817 1.84691 56.4284 1.84691ZM56.4284 1.34766C54.4813 1.34766 52.9336 1.59728 52.9336 3.54439V42.5863H56.4284C58.3755 42.5863 59.9232 41.0386 59.9232 39.0915V3.54439C59.9232 1.59728 58.3755 1.34766 56.4284 1.34766Z" fill="#D72B27"/>
<path d="M41.4506 42.5357L4.29883 5.0954L6.25298 5.89028L32.1145 24.5125L59.9231 4.12109L59.9231 39.0908C59.9231 40.988 58.3754 42.5357 56.4283 42.5357H41.4506Z" fill="url(#paint0_linear_20005153_1696)"/>
<path d="M31.9158 25.7106L5.50508 6.53918C3.95738 5.39089 3.50805 3.19416 4.65634 1.64646C5.80463 0.0987677 8.05129 -0.250712 9.64891 0.897578L31.9657 17.1234L54.4322 0.697875C55.9799 -0.450415 58.1767 -0.100935 59.3249 1.49669C60.4732 3.04438 60.1238 5.24111 58.5261 6.3894L31.9158 25.7106Z" fill="#D54B3D"/>
<path d="M56.4293 0.499257C57.3778 0.499257 58.2765 0.948588 58.8756 1.7474C59.8242 3.09539 59.5247 4.94264 58.2266 5.94115L31.9158 25.1126L5.80464 6.14086C4.45664 5.14234 4.10717 3.24517 5.05575 1.9471C5.60494 1.19822 6.55352 0.698959 7.55204 0.698959C8.20107 0.698959 8.8501 0.898662 9.34936 1.29807L31.6162 17.474L31.9158 17.6737L32.2153 17.474L54.6319 1.04844C55.1811 0.698959 55.7802 0.499257 56.4293 0.499257ZM56.4293 0C55.7303 0 54.9814 0.199703 54.3823 0.649034L31.9158 17.0746L9.59899 0.848736C8.99988 0.399405 8.251 0.199703 7.50211 0.199703C6.40375 0.199703 5.30538 0.698959 4.60642 1.64755C3.50806 3.19524 3.95739 5.39197 5.50508 6.54026L31.9158 25.7616L58.4762 6.39048C60.0239 5.24219 60.3734 3.09539 59.275 1.49777C58.5761 0.499257 57.5276 0 56.4293 0Z" fill="#D72B27"/>
</g>
<defs>
<filter id="filter0_d_20005153_1696" x="0" y="0" width="64" height="50.5863" filterUnits="userSpaceOnUse" color-interpolation-filters="sRGB">
<feFlood flood-opacity="0" result="BackgroundImageFix"/>
<feColorMatrix in="SourceAlpha" type="matrix" values="0 0 0 0 0 0 0 0 0 0 0 0 0 0 0 0 0 0 127 0" result="hardAlpha"/>
<feOffset dy="4"/>
<feGaussianBlur stdDeviation="2"/>
<feComposite in2="hardAlpha" operator="out"/>
<feColorMatrix type="matrix" values="0 0 0 0 0 0 0 0 0 0 0 0 0 0 0 0 0 0 0.25 0"/>
<feBlend mode="normal" in2="BackgroundImageFix" result="effect1_dropShadow_20005153_1696"/>
<feBlend mode="normal" in="SourceGraphic" in2="effect1_dropShadow_20005153_1696" result="shape"/>
</filter>
<linearGradient id="paint0_linear_20005153_1696" x1="4.30099" y1="23.3275" x2="59.941" y2="23.3275" gradientUnits="userSpaceOnUse">
<stop stop-opacity="0.1"/>
<stop offset="1" stop-opacity="0.2"/>
</linearGradient>
</defs>
</svg>
