<svg width="63" height="64" viewBox="0 0 63 64" fill="none" xmlns="http://www.w3.org/2000/svg">
<g filter="url(#filter0_d_20005153_1664)">
<path d="M32.0001 10.827C37.2579 10.827 40.8046 13.0981 42.8268 14.9959L50.729 7.28037C45.8757 2.76925 39.5602 0.000366211 32.0001 0.000366211C21.049 0.000366211 11.5913 6.28481 6.98682 15.4315L16.0401 22.4626C18.3113 15.7115 24.5957 10.827 32.0001 10.827Z" fill="#EA4335"/>
<path d="M58.88 28.6232C58.88 26.321 58.6933 24.641 58.2889 22.8988H32V33.2899H47.4311C47.12 35.8721 45.44 39.761 41.7067 42.3744L50.5422 49.2188C55.8311 44.3344 58.88 37.1477 58.88 28.6232Z" fill="#4285F4"/>
<path d="M16.0711 33.5405C15.48 31.7983 15.1378 29.9316 15.1378 28.0027C15.1378 26.0738 15.48 24.2072 16.04 22.4649L6.98667 15.4338C5.08889 19.2294 4 23.4916 4 28.0027C4 32.5138 5.08889 36.7761 6.98667 40.5716L16.0711 33.5405Z" fill="#FBBC05"/>
<path d="M31.9998 56.0017C39.5598 56.0017 45.9065 53.5128 50.542 49.2194L41.7065 42.375C39.342 44.0239 36.1687 45.175 31.9998 45.175C24.5954 45.175 18.3109 40.2905 16.0709 33.5394L7.01758 40.5705C11.622 49.7172 21.0487 56.0017 31.9998 56.0017Z" fill="#34A853"/>
</g>
<defs>
<filter id="filter0_d_20005153_1664" x="0" y="0.000366211" width="62.8799" height="64.0013" filterUnits="userSpaceOnUse" color-interpolation-filters="sRGB">
<feFlood flood-opacity="0" result="BackgroundImageFix"/>
<feColorMatrix in="SourceAlpha" type="matrix" values="0 0 0 0 0 0 0 0 0 0 0 0 0 0 0 0 0 0 127 0" result="hardAlpha"/>
<feOffset dy="4"/>
<feGaussianBlur stdDeviation="2"/>
<feComposite in2="hardAlpha" operator="out"/>
<feColorMatrix type="matrix" values="0 0 0 0 0 0 0 0 0 0 0 0 0 0 0 0 0 0 0.25 0"/>
<feBlend mode="normal" in2="BackgroundImageFix" result="effect1_dropShadow_20005153_1664"/>
<feBlend mode="normal" in="SourceGraphic" in2="effect1_dropShadow_20005153_1664" result="shape"/>
</filter>
</defs>
</svg>
