<svg width="62" height="64" viewBox="0 0 62 64" fill="none" xmlns="http://www.w3.org/2000/svg">
<g filter="url(#filter0_d_20005153_1718)">
<path fill-rule="evenodd" clip-rule="evenodd" d="M56.2308 40.0173L56.2257 40.0357C56.0561 40.6562 51.8604 56.005 36.1036 56.0004C22.2645 55.9961 15.705 43.8261 15.705 43.8261C14.6964 43.883 13.7232 43.721 12.8256 43.3874C8.7653 41.8783 6.8172 37.1787 8.21811 33.236L5.98659 31.5107C-2.65765 24.8485 21.8299 -5.63756 30.4891 1.26082C30.5329 1.29568 32.5562 2.94331 32.5562 2.94331C35.6653 1.03311 38.7445 0.000478807 41.2474 0.000366284C43.0249 0.000141456 44.5115 0.520787 45.5126 1.61752C47.7602 4.07951 46.9524 8.78095 43.8834 13.5409C44.5435 14.1749 45.0906 15.0366 45.4811 15.892C46.4567 16.6536 47.0892 17.8115 47.4034 19.4107C47.5977 20.3983 47.7065 21.6188 47.8024 22.6953C47.8792 23.5569 47.9477 24.3262 48.0454 24.8101C48.2524 24.9046 48.3856 24.9646 48.4828 25.0083C48.5741 25.0494 48.6335 25.0762 48.6925 25.1039C48.8027 25.1556 48.9113 25.2105 49.2225 25.3679C49.2763 25.3951 49.336 25.4253 49.4028 25.459C50.3229 25.9242 51.4433 26.4908 52.6815 27.6961C54.8823 28.254 55.7227 30.6213 54.435 32.237C54.4004 32.2803 54.2449 32.4667 54.0838 32.6522C54.0897 32.6678 54.1046 32.6973 54.1266 32.741L54.1267 32.7411C54.2488 32.9833 54.5911 33.6622 54.8491 34.8553C55.7611 35.0732 56.4875 35.6413 56.8688 36.4651C57.5281 38.0774 56.2308 40.0173 56.2308 40.0173ZM49.885 51.9831V52.6463H50.1361V51.9831H50.3928V51.7738H49.6316V51.9831H49.885ZM50.4695 52.6463V51.7738H50.8273L50.9842 52.2759L51.1388 51.7738H51.4968V52.6463H51.2679V52.0147L51.0808 52.6463H50.8855L50.6984 52.0164V52.6463H50.4695Z" fill="#5B453E"/>
<path fill-rule="evenodd" clip-rule="evenodd" d="M54.824 39.0807C54.6253 39.8244 53.6515 43.4696 49.7537 46.5437C44.3397 50.8142 37.2264 50.382 34.5399 47.9888C33.1047 46.6414 32.4835 44.7143 32.4835 44.7143C32.4835 44.7143 32.321 45.8002 32.2932 46.2268C31.2106 44.3786 31.3021 42.1212 31.3021 42.1212C31.3021 42.1212 30.7246 43.2022 30.4602 43.8077C29.6634 41.7721 30.0751 39.6702 30.0751 39.6702L29.4447 40.6133C29.4447 40.6133 29.1491 38.3095 29.8749 36.3904C30.6505 34.3398 32.1543 32.8501 32.4515 32.6644C31.3106 32.3004 29.9961 31.2568 29.9939 31.2549C29.9939 31.2549 30.5165 31.2896 30.8799 31.2059C30.8799 31.2059 28.573 29.547 28.1685 27.0089C28.5027 27.4234 29.204 27.8917 29.204 27.8917C28.977 27.2275 28.8396 25.7498 29.0517 24.2954L29.0525 24.2938C29.4889 21.5155 31.7701 19.7063 34.3539 19.729C34.8476 19.7334 35.3122 19.7556 35.7553 19.7769C37.7815 19.874 39.3621 19.9498 41.2543 18.1984C41.2809 18.1737 41.3072 18.1492 41.3333 18.125C41.7856 17.7048 42.1692 17.3485 42.8169 17.2044C42.8297 17.2015 42.8458 17.1968 42.8658 17.191C42.9585 17.164 43.1334 17.113 43.4359 17.113C43.808 17.113 44.1663 17.197 44.4941 17.3929C45.7449 18.1402 46.0146 20.0892 46.149 21.5183C46.4528 24.7581 46.4958 25.6652 46.9713 26.1303C47.2737 26.4262 47.7512 26.5432 48.5822 26.9682C48.6806 27.0184 48.7801 27.0683 48.8809 27.1188C49.8244 27.5921 50.8734 28.1184 52.0512 29.3842C52.0577 29.3913 52.0671 29.3955 52.0767 29.3957C53.1762 29.4221 53.7429 30.291 53.2356 30.9237C49.5463 35.3461 44.3936 37.4638 38.6511 37.641C38.467 37.6457 38.1046 37.6542 37.9501 37.6578C37.9055 37.6589 37.8783 37.6595 37.8776 37.6595C35.5583 37.73 34.8031 40.7418 36.2584 42.5531C37.1781 43.6979 38.9472 44.0741 40.4033 44.0798L40.424 44.0724C46.7025 44.2001 53.0103 39.7405 54.0998 37.2812C54.1077 37.2635 54.1742 37.1069 54.1742 37.1069C54.1742 37.1069 54.1162 37.1751 54.0462 37.2327C54.0428 37.235 54.0262 37.2502 53.9969 37.2771C53.4018 37.8228 47.5629 43.1768 40.3744 42.9745C40.3744 42.9745 39.5619 42.9576 38.7968 42.7788C37.7879 42.5432 37.0215 42.0983 36.7281 41.0889C36.641 40.904 36.5909 40.2644 36.7067 39.8339C37.0222 38.7739 37.5507 38.7646 38.3682 38.7503C38.4906 38.7482 38.6194 38.7459 38.755 38.74H38.7551C42.4742 38.6157 45.4753 37.677 47.7245 36.6052C50.1229 35.4622 51.9507 33.9896 52.6093 33.2462C53.4635 34.6898 53.4583 36.5436 53.4583 36.5436C53.4583 36.5436 53.7934 36.4261 54.2369 36.4261C55.6309 36.4262 55.9177 37.6777 54.8625 38.948C54.856 38.9608 54.8439 39.0062 54.824 39.0807ZM20.171 32.276C20.171 32.276 19.9974 32.9971 19.6531 33.8757C19.3224 31.0636 18.1467 30.4686 18.1467 30.4687C17.4655 30.1519 16.7124 29.976 15.9205 29.976C12.8655 29.976 10.3889 32.593 10.3889 35.8215C10.3889 39.0498 12.8655 41.6668 15.9205 41.6668C19.3615 41.6668 21.9734 38.3782 21.3654 34.7856C21.3654 34.7856 21.0146 35.6077 20.6877 36.0442C20.7669 34.7581 20.5652 33.4857 20.171 32.276Z" fill="#F2D8B4"/>
<path d="M8.6401 31.1107C8.61805 31.105 6.53878 29.6251 6.243 29.1377C4.49354 26.2745 7.53719 20.3933 9.70312 17.0503C15.0557 8.78848 23.9649 2.2683 28.0114 3.19943L32.1669 5.27978C30.5534 6.20027 28.9929 7.33089 28.0581 8.08285L27.1738 8.80202C27.1738 8.80202 24.5917 10.4881 23.3074 11.551C18.1593 15.8116 13.0903 22.4072 11.2105 28.7738C11.2105 28.7736 9.66599 29.5173 8.6401 31.1107Z" fill="#207EAC"/>
<path d="M29.0556 3.20696C24.9308 2.19676 15.8497 9.2705 10.3937 18.234C10.3921 18.2366 10.3905 18.2393 10.3889 18.2419L10.4109 18.2443L14.7583 21.7774C19.5317 13.9557 25.5311 9.92259 25.7003 9.80412L25.011 5.01677L26.3023 4.37856L28.8938 5.24486L28.6956 4.35115L29.0556 3.20696Z" fill="#4FB1D3"/>
<path d="M35.2774 4.3726L30.5567 7.53501L30.2264 7.78118L26.0402 4.5237L25.9441 3.90766L27.3996 3.24397C27.4743 3.26701 30.2054 4.10933 30.3206 4.14486L30.3694 2.41765L30.5031 2.0256L31.7817 1.55896C31.7835 1.56017 35.2726 4.3686 35.2774 4.3726Z" fill="#FACD55"/>
<path d="M40.4689 1.55896C37.802 1.55896 34.808 3.03787 32.5112 4.4919C32.1891 4.69178 31.8694 4.90096 31.5563 5.11415L30.3545 4.05199L30.791 5.65142C30.626 5.77092 30.4649 5.89007 30.3072 6.00854L27.8241 5.2091L29.4671 6.65923C29.092 6.959 28.7569 7.23963 28.4789 7.48263L24.5387 4.05233L24.7473 5.58973L27.611 8.25007C27.611 8.25007 25.0768 10.0489 23.8164 11.1831C18.7638 15.7288 13.789 22.7661 11.9441 29.559L12.0489 29.4968C12.0632 29.4884 12.0775 29.4816 12.0918 29.4733C12.1431 29.4442 12.1943 29.4164 12.2456 29.3891C12.2785 29.3717 12.3113 29.354 12.3442 29.3374C12.397 29.3107 12.4499 29.2858 12.5027 29.2613C12.5338 29.2467 12.5651 29.2314 12.5964 29.2178C12.6536 29.1924 12.7107 29.1695 12.7679 29.1467C12.7943 29.1361 12.8207 29.1246 12.8472 29.1147C12.9305 29.0832 13.0135 29.0541 13.0962 29.0281C14.3505 28.6336 16.057 28.3799 18.0545 29.2743C19.0577 26.6065 20.2562 23.8923 22.1449 21.2842C23.6763 19.1695 25.1483 17.2817 26.9152 16.2434C30.2607 12.9298 39.2774 9.41613 42.1661 12.4618C42.8492 11.2837 43.442 10.1684 43.9303 8.77037C45.1357 5.4083 45.1576 1.55896 40.4689 1.55896Z" fill="#070A11"/>
<path d="M30.6112 4.66627L29.6317 3.11072L29.0557 3.88569L29.4004 4.49488L30.6112 4.66627Z" fill="#070A11"/>
<path fill-rule="evenodd" clip-rule="evenodd" d="M39.6702 1.55896C38.206 1.71252 36.6793 2.24527 35.2549 2.91956C30.4465 5.23517 27.0904 8.65102 26.6879 9.06071C26.6706 9.07831 26.6587 9.09036 26.6525 9.09654C26.2531 9.48993 25.855 9.89741 25.4601 10.3168C24.2851 11.5641 23.1372 12.915 22.0616 14.3041C20.1596 16.7601 19.3682 17.9062 18.1668 20.2408C18.1666 20.2411 18.1748 20.231 18.1909 20.2112C18.6253 19.6771 24.7938 12.0936 26.3723 10.4859C29.3763 7.4262 34.2931 4.0187 34.3443 3.98834C36.4439 2.66913 38.216 1.89491 39.6702 1.55896ZM51.5611 32.3555C52.3887 33.7863 52.3837 35.6235 52.3837 35.6235C52.398 36.1508 52.3811 36.4417 52.3523 36.8495C50.674 38.3046 45.6698 42.169 39.7073 41.9972C39.7073 41.9972 38.92 41.9806 38.1787 41.8034C37.2066 41.5712 36.4668 41.1335 36.179 40.1446L36.1745 40.1286L36.1739 40.1274C36.1695 40.1172 36.1325 40.0281 36.1086 39.8362L36.1077 39.8287L36.1069 39.8214C36.1015 39.7736 36.097 39.7227 36.0939 39.6696L36.0929 39.6511L36.0926 39.645C36.0883 39.5601 36.0873 39.4629 36.0908 39.3525C36.0923 39.3138 36.0946 39.2752 36.0977 39.2366L36.0981 39.2367L36.0985 39.2245C36.1086 39.1052 36.1264 38.9887 36.1538 38.8846C36.4595 37.834 36.9715 37.8248 37.7636 37.8106C37.8822 37.8085 38.007 37.8063 38.1383 37.8004H38.1384C41.7417 37.6772 44.6494 36.7468 46.8285 35.6846C49.1521 34.5518 50.9231 33.0923 51.5611 32.3555Z" fill="#FFFFFE"/>
<path fill-rule="evenodd" clip-rule="evenodd" d="M45.4009 23.1162C45.6624 25.9028 45.7245 26.5645 46.2768 26.9572C46.292 26.9721 46.3076 26.9848 46.3232 26.9951C45.9524 27.1033 45.6205 27.205 45.3262 27.298C44.7839 26.5629 44.031 25.8756 42.4832 25.9873C40.4318 26.1634 38.8017 27.9972 39.0969 29.8183C38.1222 30.31 37.2143 30.8199 36.3699 31.3391C34.9768 31.4884 33.2797 31.9694 31.7829 33.2226C30.6547 32.8673 29.3548 31.8488 29.3525 31.8469C29.3525 31.8469 29.8695 31.8808 30.2287 31.7991C30.2287 31.7991 30.2038 31.7813 30.1589 31.7469C30.1569 31.7444 30.1546 31.742 30.1519 31.7399C30.1213 31.7159 30.09 31.6921 30.0583 31.668C29.5217 31.2366 27.8811 29.7678 27.5476 27.7027C27.8781 28.1073 28.5715 28.5643 28.5715 28.5643C28.5632 28.5405 28.5551 28.5155 28.5471 28.4896C28.548 28.4869 28.5485 28.484 28.5488 28.4811L28.5489 28.4777C28.5489 28.4777 28.4527 28.2032 28.3851 27.6742C28.3666 27.5255 28.3514 27.3672 28.3399 27.2014C28.3326 27.0896 28.3269 26.971 28.3237 26.8452C28.4086 25.8013 28.6748 24.9242 29.3379 24.0944C30.305 22.8847 31.6319 22.3931 33.1628 22.4167C33.5843 22.422 34.0101 22.4655 34.4539 22.5109C34.8801 22.5544 35.3229 22.5997 35.7943 22.6144C37.1092 22.6555 38.3757 22.4388 39.7084 21.8412C41.0252 21.2194 41.7697 20.5018 42.5489 19.3875C42.8235 19.087 43.3078 18.6473 43.7361 18.666C44.0202 18.666 44.2174 18.8055 44.3576 18.9269C45.0358 19.8341 45.2235 21.2462 45.3281 22.3441C45.3542 22.6182 45.3783 22.8751 45.4009 23.1162ZM41.3967 28.4921C41.7132 27.4816 43.1486 26.9956 44.0153 27.6062C43.628 27.8294 43.5087 28.4764 43.745 28.8518C43.2551 28.8428 42.7516 29.0345 42.3975 29.3741C42.4304 28.8931 41.8983 28.5172 41.3967 28.4921ZM46.6318 48.2224C47.4066 47.8186 48.1655 47.337 48.8934 46.7703C52.7473 43.7704 53.7105 40.2131 53.9073 39.4866C53.927 39.4137 53.939 39.3693 53.9455 39.3568C52.1613 41.6423 49.8274 43.4586 47.3301 44.7159C45.2767 45.7504 43.7405 46.1103 43.7405 46.1103C43.7405 46.1103 44.8401 47.5477 46.6318 48.2224ZM34.923 39.9371C35.196 38.9305 35.967 38.133 37.1488 38.0975L37.2214 38.0958C37.3746 38.0922 37.7319 38.084 37.9137 38.0794C43.5923 37.9065 48.6875 35.8395 52.3358 31.5233C52.8374 30.9058 52.277 30.0578 51.1898 30.032L51.1815 30.0319L51.1743 30.032C51.0803 30.1305 51.0257 30.2706 50.9542 30.4543C50.8858 30.6298 50.802 30.8452 50.6533 31.1021C49.5436 33.0121 48.0088 33.8856 45.9622 34.8989C42.6352 36.5399 40.1575 36.906 38.3691 37.1702C36.7844 37.4043 35.741 37.5585 35.1275 38.4487C34.748 39.0064 34.7409 39.6293 34.923 39.9371ZM47.0178 39.224C47.0021 39.2243 46.9859 39.2278 46.9601 39.2335C46.8792 39.252 46.6996 39.3101 46.4396 39.3942C44.7129 39.9526 39.4377 41.6585 35.9343 40.5683C35.9162 40.7868 35.922 41.246 36.0123 41.4455L36.0128 41.4467C36.6225 41.5678 37.3943 41.6452 38.29 41.6452C43.5944 41.6452 47.417 39.2558 47.0178 39.224ZM17.3461 38.7317L17.3416 38.7348C14.849 38.9169 12.5442 35.761 13.905 34.0208C14.0913 33.8818 14.2508 33.8019 14.3138 33.7703C14.3248 33.7648 14.3329 33.7607 14.3377 33.7581C14.374 33.739 14.4113 33.7234 14.45 33.7072C14.4769 33.696 14.5044 33.6846 14.5327 33.6714C14.56 33.6601 14.5914 33.6506 14.6259 33.641C14.7364 33.6101 14.7602 33.6014 14.7844 33.5945C14.8086 33.5876 14.8334 33.5825 14.945 33.5591H14.9448C16.1554 33.305 17.0094 33.8357 17.3812 34.3576C17.5524 34.5977 17.5892 34.7783 17.6159 34.9093C17.6246 34.9518 17.6322 34.9892 17.643 35.0216L17.6433 35.0232C17.3534 34.6226 16.9791 34.5348 16.9791 34.5348C16.6635 34.4103 16.0571 34.6005 16.0176 35.277C15.9993 35.5372 16.0775 35.8288 16.3022 36.0851L16.3039 36.087C16.3119 36.096 16.32 36.1052 16.3285 36.1142C16.3362 36.1226 16.3441 36.1309 16.3521 36.1389C16.5362 36.328 16.7551 36.4656 16.9642 36.597C17.3229 36.8225 17.6525 37.0297 17.7278 37.4475C17.8046 37.9072 17.6691 38.3877 17.3461 38.7317Z" fill="#E2B986"/>
<path fill-rule="evenodd" clip-rule="evenodd" d="M42.0059 12.153C39.9999 10.5846 34.1449 11.0287 28.2833 14.8921C25.5995 16.6609 23.6314 18.5956 22.1145 20.6057C22.1145 20.6057 24.4562 16.0791 29.6015 13.0851C29.2428 13.0265 28.3994 13.1291 28.1575 13.1585C28.1409 13.1605 28.1271 13.1622 28.1166 13.1635C29.0513 12.3459 30.7878 11.8001 31.9878 11.552C31.6366 11.3248 30.8002 11.2674 30.385 11.2562C30.2718 11.2532 30.2642 11.2535 30.1498 11.2584C30.1402 11.2588 30.1298 11.2592 30.1185 11.2597C31.2471 10.618 33.3398 10.2414 35.2422 10.5816C35.0031 10.2589 34.4609 10.0234 34.0808 9.90891C34.0476 9.8988 33.8984 9.86111 33.8984 9.86111C33.8984 9.86111 34.0256 9.83056 34.0417 9.82738C35.1877 9.60299 36.5264 9.84529 37.5854 10.2777C37.4651 9.99385 37.1712 9.66332 36.9503 9.4541C36.9277 9.43267 36.7958 9.3363 36.7958 9.3363C37.9037 9.56981 38.9654 10.0612 39.7643 10.6192C39.6557 10.4058 39.3871 10.0467 39.2013 9.85056C40.26 10.1586 41.4485 10.9262 41.9578 12.0267C41.9703 12.0515 42.0025 12.1421 42.0062 12.1523L42.0059 12.153ZM37.3075 26.8408C37.4218 27.0108 37.4524 27.1391 37.4062 27.1925C37.3234 27.291 37.0485 27.1811 36.6399 27.0178L36.6399 27.0177C36.5946 26.9996 36.5477 26.9809 36.4992 26.9616C35.2556 26.4899 34.3393 26.418 32.7174 27.0423L32.5879 27.0928C32.2459 27.2264 32.0014 27.322 31.877 27.3032C31.6496 27.2688 31.8698 26.8454 32.3669 26.4346C33.3671 25.6232 34.7408 25.3714 35.9147 25.8157C36.4285 26.008 37.0055 26.3918 37.3075 26.8408ZM37.0607 28.1348C36.7198 27.8699 36.092 27.6924 35.4401 27.805C35.3383 27.8208 35.2423 27.8487 35.1485 27.8759C35.1163 27.8853 35.0844 27.8946 35.0526 27.9032C35.007 27.9147 34.9635 27.931 34.921 27.9492C34.6515 28.0646 34.4182 28.189 34.1918 28.4097C33.932 28.6649 33.8582 28.902 33.9333 28.9603C33.9976 29.0125 34.1424 28.9519 34.3623 28.8599L34.3973 28.8452L34.4648 28.8172C35.3955 28.4238 36.0543 28.4133 36.6818 28.4578L36.7264 28.4609C37.0043 28.4801 37.1893 28.4928 37.234 28.4132C37.2671 28.3563 37.207 28.2482 37.0607 28.1348ZM17.0171 32.9902L17.0169 32.99C16.5082 32.5728 15.7872 32.3754 14.9495 32.5559H14.9497L14.9344 32.5592C14.8363 32.5804 14.8129 32.5854 14.7899 32.5921C14.7827 32.5942 14.7756 32.5965 14.7662 32.5995L14.7662 32.5995L14.7661 32.5995C14.7439 32.6065 14.7092 32.6175 14.632 32.6397C14.5976 32.6494 14.5663 32.6592 14.5393 32.6706C14.5112 32.684 14.484 32.6957 14.4575 32.7071C14.4187 32.7237 14.3815 32.7396 14.3451 32.7593C14.3404 32.762 14.3325 32.7661 14.3216 32.7716C14.2144 32.8267 13.8241 33.027 13.5009 33.4291C13.3283 33.6469 13.1956 33.8891 13.0987 34.1383C12.9238 34.5986 12.8584 35.103 12.8771 35.5877C12.9028 36.2494 13.0759 36.6466 13.1407 36.7952C13.1484 36.8129 13.1546 36.8271 13.1588 36.8378C13.3243 37.1992 12.9368 37.2735 12.5833 36.885L12.5824 36.8842C12.2996 36.5798 12.1185 36.1162 12.0299 35.7044V35.7042C11.9776 35.4595 11.9441 35.1849 11.9441 34.8894C11.9441 34.5467 11.9893 34.1757 12.1026 33.7915L12.1027 33.7909L12.1028 33.7906C12.4094 32.7812 13.0984 32.0189 14.1454 31.6038C14.2119 31.5772 14.2859 31.5575 14.3552 31.5391C14.3866 31.5308 14.417 31.5227 14.4453 31.5143L14.4443 31.5145C14.6207 31.461 15.2522 31.331 15.8942 31.4326C16.2657 31.4911 16.6036 31.6162 16.8948 31.7811C17.1855 31.9457 17.43 32.1501 17.6156 32.3694L17.6164 32.3704C17.9198 32.7212 18.1488 33.2162 18.1081 33.6567L18.108 33.6578C18.0927 33.841 18.013 34.1035 17.8507 34.1717C17.7903 34.1967 17.7297 34.1834 17.6874 34.1411C17.6399 34.0938 17.6265 34.0264 17.6084 33.9355C17.5819 33.8017 17.5452 33.6172 17.3746 33.3717C17.2873 33.2458 17.1702 33.1139 17.0174 32.9904L17.0171 32.9902ZM16.8382 34.6346C16.7225 34.5414 16.6688 34.4619 16.6368 34.3394C16.5895 34.1164 16.6142 33.9868 16.8017 33.8529C16.8423 33.8246 16.8807 33.8004 16.915 33.7788C17.0023 33.7239 17.0623 33.6861 17.0626 33.6407C17.0691 33.5211 16.5862 33.3981 16.2485 33.7361C15.9682 34.0398 15.8797 34.6729 16.327 35.1664C16.5152 35.373 16.7431 35.5199 16.9601 35.6599C17.3171 35.8901 17.6449 36.1014 17.7199 36.5287C17.7358 36.626 17.7475 36.7344 17.7392 36.8414C17.7408 36.9512 17.7086 37.1042 17.7004 37.1433L17.6986 37.1522C17.5488 37.8158 16.9295 38.4489 15.9083 38.2876L15.864 38.2809C15.701 38.2564 15.5954 38.2404 15.562 38.289C15.4832 38.4004 15.9209 38.9096 16.722 38.8912C17.5059 38.8743 18.2835 38.2775 18.5328 37.3805L18.5346 37.374C18.5462 37.3314 18.6097 37.0977 18.6153 36.8867C18.6293 36.7179 18.6173 36.5443 18.5864 36.3626C18.4339 35.5024 17.7675 35.1527 17.2655 34.8892C17.0954 34.8 16.9441 34.7206 16.8382 34.6346ZM43.4763 27.1055C43.5427 26.6736 43.8474 26.3633 44.1572 26.4124C44.4669 26.4616 44.6643 26.8516 44.5981 27.2835C44.5317 27.7155 44.2269 28.0258 43.9172 27.9767C43.6074 27.9275 43.41 27.5375 43.4763 27.1055ZM40.7535 27.6728C40.5832 27.9887 40.7906 28.4374 41.2167 28.6747C41.6427 28.9122 42.1261 28.8486 42.2964 28.5325C42.4666 28.2166 42.2594 27.768 41.8332 27.5306C41.4071 27.2933 40.9237 27.3569 40.7535 27.6728Z" fill="#916D53"/>
<path d="M41.5012 24.6206C41.495 24.1928 41.5449 23.486 41.8426 23.3545C41.843 23.3544 41.8428 23.3544 41.8432 23.3542C42.3519 23.1155 43.0253 24.8783 43.0563 26.4435C42.6544 26.1711 42.1821 26.0556 41.6963 26.1126C41.5742 25.6087 41.5157 25.134 41.5012 24.6206Z" fill="#5B453E"/>
</g>
<defs>
<filter id="filter0_d_20005153_1718" x="0.166748" y="0.000366211" width="60.8889" height="64.0001" filterUnits="userSpaceOnUse" color-interpolation-filters="sRGB">
<feFlood flood-opacity="0" result="BackgroundImageFix"/>
<feColorMatrix in="SourceAlpha" type="matrix" values="0 0 0 0 0 0 0 0 0 0 0 0 0 0 0 0 0 0 127 0" result="hardAlpha"/>
<feOffset dy="4"/>
<feGaussianBlur stdDeviation="2"/>
<feComposite in2="hardAlpha" operator="out"/>
<feColorMatrix type="matrix" values="0 0 0 0 0 0 0 0 0 0 0 0 0 0 0 0 0 0 0.25 0"/>
<feBlend mode="normal" in2="BackgroundImageFix" result="effect1_dropShadow_20005153_1718"/>
<feBlend mode="normal" in="SourceGraphic" in2="effect1_dropShadow_20005153_1718" result="shape"/>
</filter>
</defs>
</svg>
