<svg width="64" height="64" viewBox="0 0 64 64" fill="none" xmlns="http://www.w3.org/2000/svg">
<g filter="url(#filter0_d_20005153_1683)">
<path d="M15.7655 35.3875C15.7655 38.6253 13.1205 41.2702 9.88274 41.2702C6.64495 41.2702 4 38.6253 4 35.3875C4 32.1497 6.64495 29.5048 9.88274 29.5048H15.7655V35.3875Z" fill="#E01E5A"/>
<path d="M18.7285 35.3875C18.7285 32.1497 21.3735 29.5048 24.6113 29.5048C27.849 29.5048 30.494 32.1497 30.494 35.3875V50.1171C30.494 53.3549 27.849 55.9999 24.6113 55.9999C21.3735 55.9999 18.7285 53.3549 18.7285 50.1171V35.3875Z" fill="#E01E5A"/>
<path d="M24.6122 11.7663C21.3744 11.7663 18.7295 9.12138 18.7295 5.88359C18.7295 2.64581 21.3744 0.000854492 24.6122 0.000854492C27.85 0.000854492 30.495 2.64581 30.495 5.88359V11.7663H24.6122Z" fill="#36C5F0"/>
<path d="M24.6124 14.7313C27.8502 14.7313 30.4951 17.3763 30.4951 20.6141C30.4951 23.8518 27.8502 26.4968 24.6124 26.4968H9.88274C6.64495 26.4968 4 23.8518 4 20.6141C4 17.3763 6.64495 14.7313 9.88274 14.7313H24.6124Z" fill="#36C5F0"/>
<path d="M48.2344 20.6141C48.2344 17.3763 50.8793 14.7313 54.1171 14.7313C57.3549 14.7313 59.9998 17.3763 59.9998 20.6141C59.9998 23.8518 57.3549 26.4968 54.1171 26.4968H48.2344V20.6141Z" fill="#2EB67D"/>
<path d="M45.2704 20.6132C45.2704 23.851 42.6254 26.496 39.3876 26.496C36.1498 26.496 33.5049 23.851 33.5049 20.6132V5.88359C33.5049 2.64581 36.1498 0.000854492 39.3876 0.000854492C42.6254 0.000854492 45.2704 2.64581 45.2704 5.88359V20.6132Z" fill="#2EB67D"/>
<path d="M39.3886 44.2352C42.6264 44.2352 45.2713 46.8802 45.2713 50.118C45.2713 53.3558 42.6264 56.0007 39.3886 56.0007C36.1508 56.0007 33.5059 53.3558 33.5059 50.118V44.2352H39.3886Z" fill="#ECB22E"/>
<path d="M39.3886 41.2702C36.1508 41.2702 33.5059 38.6253 33.5059 35.3875C33.5059 32.1497 36.1508 29.5048 39.3886 29.5048H54.1182C57.356 29.5048 60.001 32.1497 60.001 35.3875C60.001 38.6253 57.356 41.2702 54.1182 41.2702H39.3886Z" fill="#ECB22E"/>
</g>
<defs>
<filter id="filter0_d_20005153_1683" x="0" y="0.000854492" width="64.001" height="63.9999" filterUnits="userSpaceOnUse" color-interpolation-filters="sRGB">
<feFlood flood-opacity="0" result="BackgroundImageFix"/>
<feColorMatrix in="SourceAlpha" type="matrix" values="0 0 0 0 0 0 0 0 0 0 0 0 0 0 0 0 0 0 127 0" result="hardAlpha"/>
<feOffset dy="4"/>
<feGaussianBlur stdDeviation="2"/>
<feComposite in2="hardAlpha" operator="out"/>
<feColorMatrix type="matrix" values="0 0 0 0 0 0 0 0 0 0 0 0 0 0 0 0 0 0 0.25 0"/>
<feBlend mode="normal" in2="BackgroundImageFix" result="effect1_dropShadow_20005153_1683"/>
<feBlend mode="normal" in="SourceGraphic" in2="effect1_dropShadow_20005153_1683" result="shape"/>
</filter>
</defs>
</svg>
